<?xml version="1.0" encoding="UTF-8" standalone="no"?>
<!DOCTYPE svg PUBLIC "-//W3C//DTD SVG 1.1//EN"
 "http://www.w3.org/Graphics/SVG/1.1/DTD/svg11.dtd">
<!-- Generated by graphviz version 2.43.0 (0)
 -->
<!-- Title: %3 Pages: 1 -->
<svg width="239pt" height="260pt"
 viewBox="0.00 0.00 239.00 260.00" xmlns="http://www.w3.org/2000/svg" xmlns:xlink="http://www.w3.org/1999/xlink">
<g id="graph0" class="graph" transform="scale(1 1) rotate(0) translate(4 256)">
<title>%3</title>
<polygon fill="white" stroke="transparent" points="-4,4 -4,-256 235,-256 235,4 -4,4"/>
<!-- transp -->
<g id="node1" class="node">
<title>transp</title>
<text text-anchor="middle" x="54" y="-230.3" font-family="Sans" font-size="14.00">transparency</text>
</g>
<!-- reprod -->
<g id="node3" class="node">
<title>reprod</title>
<text text-anchor="middle" x="173" y="-158.3" font-family="Sans" font-size="14.00">reproducibility</text>
</g>
<!-- transp&#45;&gt;reprod -->
<g id="edge1" class="edge">
<title>transp&#45;&gt;reprod</title>
<path fill="none" stroke="black" d="M83.11,-215.88C98.67,-206.72 118.02,-195.34 134.78,-185.48"/>
<polygon fill="black" stroke="black" points="136.93,-188.28 143.78,-180.19 133.38,-182.24 136.93,-188.28"/>
</g>
<!-- reusab -->
<g id="node4" class="node">
<title>reusab</title>
<text text-anchor="middle" x="53" y="-158.3" font-family="Sans" font-size="14.00">reusability</text>
</g>
<!-- transp&#45;&gt;reusab -->
<g id="edge2" class="edge">
<title>transp&#45;&gt;reusab</title>
<path fill="none" stroke="black" d="M53.75,-215.7C53.64,-207.98 53.51,-198.71 53.39,-190.11"/>
<polygon fill="black" stroke="black" points="56.89,-190.05 53.24,-180.1 49.89,-190.15 56.89,-190.05"/>
</g>
<!-- availa -->
<g id="node2" class="node">
<title>availa</title>
<text text-anchor="middle" x="172" y="-230.3" font-family="Sans" font-size="14.00">availability</text>
</g>
<!-- availa&#45;&gt;reprod -->
<g id="edge4" class="edge">
<title>availa&#45;&gt;reprod</title>
<path fill="none" stroke="black" d="M172.25,-215.7C172.36,-207.98 172.49,-198.71 172.61,-190.11"/>
<polygon fill="black" stroke="black" points="176.11,-190.15 172.76,-180.1 169.11,-190.05 176.11,-190.15"/>
</g>
<!-- availa&#45;&gt;reusab -->
<g id="edge3" class="edge">
<title>availa&#45;&gt;reusab</title>
<path fill="none" stroke="black" d="M142.89,-215.88C127.33,-206.72 107.98,-195.34 91.22,-185.48"/>
<polygon fill="black" stroke="black" points="92.62,-182.24 82.22,-180.19 89.07,-188.28 92.62,-182.24"/>
</g>
<!-- quality -->
<g id="node6" class="node">
<title>quality</title>
<text text-anchor="middle" x="169" y="-86.3" font-family="Sans" font-size="14.00">↗ quality</text>
</g>
<!-- reprod&#45;&gt;quality -->
<g id="edge6" class="edge">
<title>reprod&#45;&gt;quality</title>
<path fill="none" stroke="black" d="M172.01,-143.7C171.57,-135.98 171.04,-126.71 170.55,-118.11"/>
<polygon fill="black" stroke="black" points="174.04,-117.89 169.98,-108.1 167.05,-118.29 174.04,-117.89"/>
</g>
<!-- quantity -->
<g id="node5" class="node">
<title>quantity</title>
<text text-anchor="middle" x="61" y="-86.3" font-family="Sans" font-size="14.00">↗ quantity</text>
</g>
<!-- reusab&#45;&gt;quantity -->
<g id="edge5" class="edge">
<title>reusab&#45;&gt;quantity</title>
<path fill="none" stroke="black" d="M54.98,-143.7C55.86,-135.98 56.92,-126.71 57.9,-118.11"/>
<polygon fill="black" stroke="black" points="61.39,-118.44 59.05,-108.1 54.43,-117.64 61.39,-118.44"/>
</g>
<!-- visib -->
<g id="node7" class="node">
<title>visib</title>
<text text-anchor="middle" x="113" y="-14.3" font-family="Times-Roman-bold" font-size="14.00">visibility</text>
</g>
<!-- quantity&#45;&gt;visib -->
<g id="edge8" class="edge">
<title>quantity&#45;&gt;visib</title>
<path fill="none" stroke="black" d="M73.85,-71.7C80.03,-63.39 87.54,-53.28 94.32,-44.14"/>
<polygon fill="black" stroke="black" points="97.14,-46.22 100.29,-36.1 91.52,-42.04 97.14,-46.22"/>
</g>
<!-- quality&#45;&gt;visib -->
<g id="edge7" class="edge">
<title>quality&#45;&gt;visib</title>
<path fill="none" stroke="black" d="M155.16,-71.7C148.51,-63.39 140.42,-53.28 133.11,-44.14"/>
<polygon fill="black" stroke="black" points="135.66,-41.73 126.68,-36.1 130.2,-46.1 135.66,-41.73"/>
</g>
</g>
</svg>
